<svg xmlns="http://www.w3.org/2000/svg" 
     width="30" 
     height="30" 
     viewBox="0 0 30 30" 
     fill="#4285F4">
    <g class="tilted-stamp">
        <path  d="M20.5786 5.92188C18.8192 5.00543 16.7909 5.11543 15.3871 6.20803C14.9495 6.54603 14.3642 7.32645 14.1793 7.82929C13.8875 8.60392 13.8263 9.32288 13.9835 10.2385C14.0957 10.9173 14.0338 11.5641 13.7802 12.2688C13.5982 12.7839 12.9813 13.6492 12.5779 13.9554C12.2937 14.1674 11.6232 14.5236 11.3554 14.5989L11.2023 14.6432L13.8916 16.5604L16.5809 18.4775L16.5743 18.3244C16.5568 18.0406 16.6686 17.2912 16.7802 16.9561C16.9429 16.4682 17.5597 15.6028 17.9849 15.2662C18.5819 14.7858 19.151 14.5313 19.8778 14.4045C20.6922 14.2686 21.3793 13.9702 21.9816 13.4987C22.2446 13.2921 22.3432 13.1782 22.6746 12.7133C23.007 12.2388 23.0778 12.1152 23.1903 11.7707C23.728 10.1886 23.2786 8.38402 22.0117 7.02022C21.7301 6.71715 20.94 6.11296 20.5786 5.92188Z" fill="#4285F4"/>
        <path  d="M6.77552 13.11C6.16585 12.829 5.54199 12.722 4.87365 12.783C3.8887 12.8741 3.20831 13.2848 2.58659 14.1569C2.22372 14.666 2.17966 14.8495 2.34919 15.1393C2.45042 15.3138 2.50797 15.3548 10.6257 21.1417C18.7435 26.9286 18.801 26.9696 18.999 27.0084C19.3282 27.0742 19.4874 26.9727 19.8503 26.4636C20.3317 25.7883 20.5109 25.261 20.4956 24.5438C20.4815 23.679 20.1046 22.8115 19.4495 22.1398C19.2186 21.9035 18.5329 21.4045 13.1366 17.5627C7.90901 13.8413 7.03715 13.23 6.77552 13.11Z" fill="#4285F4"/>
        <path  d="M2.01996 17.3868C1.55549 18.0383 1.51644 18.1743 1.68296 18.4926L1.7832 18.6767L8.8076 23.6841C15.7745 28.6506 15.8358 28.6943 16.0338 28.7331C16.3832 28.803 16.5125 28.7109 16.9818 28.0526L17.381 27.4927L9.90005 22.1598L2.41912 16.8268L2.01996 17.3868Z"/>
    </g>
</svg>
